<svg width="218" height="218" viewBox="0 0 218 218" fill="none" xmlns="http://www.w3.org/2000/svg">
<path d="M41.1359 141.352V143.883H39.1828V154H35.8938V143.883H33.9484V141.352H41.1359ZM42.6859 141.352H45.0141C46.5661 141.352 47.6156 141.411 48.1625 141.531C48.7146 141.651 49.1625 141.958 49.5063 142.453C49.8552 142.943 50.0297 143.727 50.0297 144.805C50.0297 145.789 49.9073 146.451 49.6625 146.789C49.4177 147.128 48.9359 147.331 48.2172 147.398C48.8682 147.56 49.3057 147.776 49.5297 148.047C49.7536 148.318 49.8917 148.568 49.9438 148.797C50.001 149.021 50.0297 149.643 50.0297 150.664V154H46.975V149.797C46.975 149.12 46.9203 148.701 46.8109 148.539C46.7068 148.378 46.4281 148.297 45.975 148.297V154H42.6859V141.352ZM45.975 143.516V146.328C46.3448 146.328 46.6026 146.279 46.7484 146.18C46.8995 146.076 46.975 145.745 46.975 145.188V144.492C46.975 144.091 46.9021 143.828 46.7563 143.703C46.6156 143.578 46.3552 143.516 45.975 143.516ZM55.4 141.352V154H52.1109V141.352H55.4ZM68.9609 141.352L67.2891 154H62.2969L60.3984 141.352H63.8672C64.2682 144.836 64.5547 147.781 64.7266 150.188C64.8984 147.755 65.0781 145.594 65.2656 143.703L65.4922 141.352H68.9609ZM73.6125 141.352V154H70.3234V141.352H73.6125ZM75.7328 141.352H78.0609C79.613 141.352 80.6625 141.411 81.2094 141.531C81.7615 141.651 82.2094 141.958 82.5531 142.453C82.9021 142.943 83.0766 143.727 83.0766 144.805C83.0766 145.789 82.9542 146.451 82.7094 146.789C82.4646 147.128 81.9828 147.331 81.2641 147.398C81.9151 147.56 82.3526 147.776 82.5766 148.047C82.8005 148.318 82.9385 148.568 82.9906 148.797C83.0479 149.021 83.0766 149.643 83.0766 150.664V154H80.0219V149.797C80.0219 149.12 79.9672 148.701 79.8578 148.539C79.7536 148.378 79.475 148.297 79.0219 148.297V154H75.7328V141.352ZM79.0219 143.516V146.328C79.3917 146.328 79.6495 146.279 79.7953 146.18C79.9464 146.076 80.0219 145.745 80.0219 145.188V144.492C80.0219 144.091 79.949 143.828 79.8031 143.703C79.6625 143.578 79.4021 143.516 79.0219 143.516ZM92.1656 141.352L89.7672 149.422V154H86.7203V149.422L84.4078 141.352H87.4313C87.9052 143.815 88.1708 145.474 88.2281 146.328C88.4104 144.979 88.7151 143.32 89.1422 141.352H92.1656ZM98.4188 141.352L100.302 154H96.9344L96.7703 151.727H95.5906L95.3953 154H91.9891L93.6609 141.352H98.4188ZM96.6766 149.484C96.5099 148.052 96.3432 146.284 96.1766 144.18C95.8432 146.596 95.6349 148.365 95.5516 149.484H96.6766ZM112.636 141.352V154H109.753L108.042 148.25V154H105.292V141.352H108.042L109.886 147.047V141.352H112.636ZM122.241 141.352V149.805C122.241 150.763 122.209 151.438 122.147 151.828C122.084 152.214 121.899 152.612 121.592 153.023C121.285 153.43 120.879 153.74 120.373 153.953C119.873 154.161 119.282 154.266 118.6 154.266C117.845 154.266 117.178 154.141 116.6 153.891C116.022 153.641 115.59 153.315 115.303 152.914C115.017 152.513 114.847 152.091 114.795 151.648C114.743 151.201 114.717 150.263 114.717 148.836V141.352H118.006V150.836C118.006 151.388 118.035 151.742 118.092 151.898C118.155 152.049 118.277 152.125 118.459 152.125C118.668 152.125 118.801 152.042 118.858 151.875C118.92 151.703 118.952 151.302 118.952 150.672V141.352H122.241ZM131.283 145.18H128.228V144.242C128.228 143.805 128.189 143.526 128.111 143.406C128.033 143.286 127.903 143.227 127.72 143.227C127.522 143.227 127.371 143.307 127.267 143.469C127.168 143.63 127.119 143.875 127.119 144.203C127.119 144.625 127.176 144.943 127.291 145.156C127.4 145.37 127.71 145.628 128.22 145.93C129.684 146.799 130.606 147.513 130.986 148.07C131.366 148.628 131.556 149.526 131.556 150.766C131.556 151.667 131.449 152.331 131.236 152.758C131.028 153.185 130.621 153.544 130.017 153.836C129.413 154.122 128.71 154.266 127.908 154.266C127.028 154.266 126.275 154.099 125.65 153.766C125.03 153.432 124.624 153.008 124.431 152.492C124.239 151.977 124.142 151.245 124.142 150.297V149.469H127.197V151.008C127.197 151.482 127.239 151.786 127.322 151.922C127.41 152.057 127.564 152.125 127.783 152.125C128.002 152.125 128.163 152.039 128.267 151.867C128.377 151.695 128.431 151.44 128.431 151.102C128.431 150.357 128.33 149.87 128.127 149.641C127.918 149.411 127.405 149.029 126.588 148.492C125.77 147.951 125.228 147.557 124.963 147.312C124.697 147.068 124.476 146.729 124.298 146.297C124.127 145.865 124.041 145.312 124.041 144.641C124.041 143.672 124.163 142.964 124.408 142.516C124.658 142.068 125.059 141.719 125.611 141.469C126.163 141.214 126.83 141.086 127.611 141.086C128.465 141.086 129.192 141.224 129.791 141.5C130.395 141.776 130.793 142.125 130.986 142.547C131.184 142.964 131.283 143.674 131.283 144.68V145.18ZM139.075 141.352L140.958 154H137.591L137.427 151.727H136.247L136.052 154H132.645L134.317 141.352H139.075ZM137.333 149.484C137.166 148.052 136.999 146.284 136.833 144.18C136.499 146.596 136.291 148.365 136.208 149.484H137.333ZM149.664 141.352V154H146.781L145.07 148.25V154H142.32V141.352H145.07L146.914 147.047V141.352H149.664ZM158.417 141.352V143.883H156.464V154H153.175V143.883H151.23V141.352H158.417ZM165.006 141.352L166.889 154H163.522L163.358 151.727H162.178L161.983 154H158.577L160.248 141.352H165.006ZM163.264 149.484C163.097 148.052 162.931 146.284 162.764 144.18C162.431 146.596 162.222 148.365 162.139 149.484H163.264ZM168.252 141.352H170.58C172.132 141.352 173.181 141.411 173.728 141.531C174.28 141.651 174.728 141.958 175.072 142.453C175.421 142.943 175.595 143.727 175.595 144.805C175.595 145.789 175.473 146.451 175.228 146.789C174.983 147.128 174.502 147.331 173.783 147.398C174.434 147.56 174.871 147.776 175.095 148.047C175.319 148.318 175.457 148.568 175.509 148.797C175.567 149.021 175.595 149.643 175.595 150.664V154H172.541V149.797C172.541 149.12 172.486 148.701 172.377 148.539C172.272 148.378 171.994 148.297 171.541 148.297V154H168.252V141.352ZM171.541 143.516V146.328C171.91 146.328 172.168 146.279 172.314 146.18C172.465 146.076 172.541 145.745 172.541 145.188V144.492C172.541 144.091 172.468 143.828 172.322 143.703C172.181 143.578 171.921 143.516 171.541 143.516ZM183.356 141.352L185.239 154H181.872L181.708 151.727H180.528L180.333 154H176.927L178.598 141.352H183.356ZM181.614 149.484C181.447 148.052 181.281 146.284 181.114 144.18C180.781 146.596 180.572 148.365 180.489 149.484H181.614Z" fill="black"/>
<path d="M109 1.5C168.371 1.5 216.5 49.6294 216.5 109C216.5 168.371 168.371 216.5 109 216.5C49.6294 216.5 1.5 168.371 1.5 109C1.5 49.6294 49.6294 1.5 109 1.5Z" stroke="#312ECB" stroke-width="3"/>
<path d="M109.5 9.5C164.176 9.5 208.5 53.8238 208.5 108.5C208.5 163.176 164.176 207.5 109.5 207.5C54.8238 207.5 10.5 163.176 10.5 108.5C10.5 53.8238 54.8238 9.5 109.5 9.5Z" stroke="#312ECB" stroke-width="3"/>
<path d="M41.5 91H96.5L101 104H37L41.5 91Z" fill="#312ECB"/>
<path d="M54.5 79H71.5V133C71.5 135.761 69.2614 138 66.5 138H63C58.3056 138 54.5 134.194 54.5 129.5V79Z" fill="#312ECB"/>
<path d="M70 123C71.6316 123 71.3684 129.021 74.5 129.021C77.6316 129.021 83.5 129.021 83.5 129.021V138H66.5C66.5 138 68.3684 123 70 123Z" fill="#312ECB"/>
<path d="M81.5 91H96.5L116 138H100L81.5 91Z" fill="#312ECB"/>
<path d="M123 91H139.5L116 138L104.5 128L123 91Z" fill="#312ECB"/>
<rect x="134.5" y="91" width="17" height="47" fill="#312ECB"/>
<path d="M181.5 101C183 92 160.5 82 151 95C141.5 108 148.65 101.679 148.65 101.679C158.65 91.3572 168.65 98.179 168.65 104.679C168.65 111.179 182.5 107.5 181.5 101Z" fill="#312ECB"/>
<path d="M164.5 95.591C164.5 90.0892 172.382 92.0802 177.412 93.9107C179.951 94.8347 181.5 97.3126 181.5 100.014V137H164.5C164.5 120.829 164.5 103.671 164.5 95.591Z" fill="#312ECB"/>
</svg>
