<svg width="55" height="44" viewBox="0 0 55 44" fill="none" xmlns="http://www.w3.org/2000/svg">
<path d="M5.49711 36C5.19711 36 5.04711 35.85 5.04711 35.55V16.794H1.89711C1.59711 16.794 1.44711 16.644 1.44711 16.344V12.456C1.44711 12.156 1.59711 12.006 1.89711 12.006H14.1911C14.4911 12.006 14.6411 12.156 14.6411 12.456V16.344C14.6411 16.644 14.4911 16.794 14.1911 16.794H11.0411V35.55C11.0411 35.85 10.8911 36 10.5911 36H5.49711ZM23.5809 36C23.2929 36 23.0529 35.898 22.8609 35.694L19.2609 32.094C19.0569 31.902 18.9549 31.662 18.9549 31.374V12.456C18.9549 12.156 19.1049 12.006 19.4049 12.006H24.4989C24.7989 12.006 24.9489 12.156 24.9489 12.456V31.176H28.9809V12.456C28.9809 12.156 29.1309 12.006 29.4309 12.006H34.5249C34.8249 12.006 34.9749 12.156 34.9749 12.456V31.374C34.9749 31.662 34.8729 31.902 34.6689 32.094L31.0689 35.694C30.8769 35.898 30.6369 36 30.3489 36H23.5809ZM39.7604 36C39.4604 36 39.3104 35.85 39.3104 35.55V12.456C39.3104 12.156 39.4604 12.006 39.7604 12.006H49.5164C49.8044 12.006 50.0444 12.084 50.2364 12.24L54.3764 16.344C54.5084 16.464 54.5864 16.566 54.6104 16.65C54.6464 16.734 54.6644 16.872 54.6644 17.064V21.996C54.6644 22.152 54.6044 22.29 54.4844 22.41L52.5044 24.336L50.8304 25.776L52.8104 28.404L54.8444 32.76C54.8924 32.868 54.9284 32.976 54.9524 33.084C54.9884 33.18 55.0064 33.3 55.0064 33.444V35.55C55.0064 35.85 54.8564 36 54.5564 36H49.8044C49.5404 36 49.3604 35.88 49.2644 35.64L46.3664 27.216H45.0164V35.55C45.0164 35.85 44.8664 36 44.5664 36H39.7604ZM46.9964 22.806C47.9924 22.806 48.6704 22.602 49.0304 22.194C49.3904 21.774 49.5704 20.994 49.5704 19.854C49.5704 18.702 49.3904 17.922 49.0304 17.514C48.6704 17.094 47.9924 16.884 46.9964 16.884C46.0124 16.884 45.3344 17.094 44.9624 17.514C44.5904 17.922 44.4044 18.702 44.4044 19.854C44.4044 20.994 44.5904 21.774 44.9624 22.194C45.3344 22.602 46.0124 22.806 46.9964 22.806Z" fill="#312ECB"/>
</svg>
